<?xml version="1.0" encoding="utf-8"?>
<!-- Generator: Adobe Illustrator 27.3.1, SVG Export Plug-In . SVG Version: 6.00 Build 0)  -->
<svg version="1.1" id="Layer_1" xmlns="http://www.w3.org/2000/svg" xmlns:xlink="http://www.w3.org/1999/xlink" x="0px" y="0px"
	 viewBox="0 0 110 110" style="enable-background:new 0 0 110 110;" xml:space="preserve">
<style type="text/css">
	.st0{fill:#FFFFFF;}
</style>
<g>
	<polygon class="st0" points="55.8,23.6 44.3,12.1 55.8,0.6 67.3,12.1 	"/>
	<polygon class="st0" points="11.5,67.9 0,56.4 11.5,44.9 23,56.4 	"/>
	<polygon class="st0" points="75.3,87.1 63.8,75.6 75.3,64.1 86.8,75.6 	"/>
	<polygon class="st0" points="53,109.4 41.5,97.9 53,86.4 64.4,97.9 	"/>
	<polygon class="st0" points="33,89.4 21.5,78 33,66.5 44.5,78 	"/>
	<polygon class="st0" points="76.6,44.3 65.1,32.8 76.6,21.4 88,32.8 	"/>
	<polygon class="st0" points="32.7,44.3 21.2,32.8 32.7,21.4 44.1,32.8 	"/>
	<path class="st0" d="M32.7,21.4c0,0,18.9,24.8,43.9,0v23c0,0-21.7-22.5-43.9,0C32.6,44.3,32.6,21.4,32.7,21.4z"/>
	<g>
		<polygon class="st0" points="98.5,66.5 87,55 98.5,43.5 110,55 		"/>
		<polygon class="st0" points="54.6,66.5 43.1,55 54.6,43.5 66.1,55 		"/>
		<path class="st0" d="M54.6,43.5c0,0,18.9,24.8,43.9,0v23c0,0-21.7-22.5-43.9,0C54.6,66.5,54.6,43.5,54.6,43.5z"/>
	</g>
	<path class="st0" d="M21.5,78c0,0,21.7-22.5-0.3-45.1h23c0,0-21.9,20,0.3,45.1H21.5z"/>
</g>
</svg>
